<svg width="64" height="64" fill="none" xmlns="http://www.w3.org/2000/svg"><path fill-rule="evenodd" clip-rule="evenodd" d="M24.864 45.245c0-10.245 9.675-18.578 21.568-18.578a23.232 23.232 0 0115.733 5.89.667.667 0 001.096-.32c.484-1.817.732-3.69.739-5.57C64 11.963 49.645 0 32 0S0 11.963 0 26.667a24.099 24.099 0 007.376 17.002L3.592 56.285a1.333 1.333 0 001.816 1.6L20 51.39a35.792 35.792 0 005.576 1.382.67.67 0 00.72-.931 16.126 16.126 0 01-1.432-6.595zm.47-12.578H16a2 2 0 010-4h9.333a2 2 0 110 4zm-9.334-12h28a2 2 0 000-4H16a2 2 0 100 4z" fill="#999"/><path d="M46.433 30.666c-9.688 0-17.568 6.539-17.568 14.579 0 9.389 10.874 16.858 22.55 13.952l9.332 4.661a1.333 1.333 0 001.867-1.576l-2.4-8a13.088 13.088 0 003.787-9.037c0-8.04-7.88-14.579-17.568-14.579z"/></svg>